<svg width="50" height="50" viewBox="0 0 50 50" fill="none" xmlns="http://www.w3.org/2000/svg">
    <rect width="50" height="50"/>
    <path d="M23.6276 21.542C19.406 25.7636 15.7631 29.1682 15.4907 29.1341C15.2184 29.066 14.8439 28.7596 14.6396 28.4532C14.3332 27.9766 14.5034 27.6361 15.5588 26.5467C16.9547 25.1508 16.8866 24.7763 15.3886 24.7763C13.8565 24.7763 12.3926 26.4105 12.3926 28.0787C12.3926 29.747 13.1075 30.7343 14.6055 31.245C15.5588 31.5514 15.9674 31.5173 16.8866 31.1088C17.4994 30.8024 21.2104 27.2616 25.1257 23.2442L32.2412 15.9244H34.3861H36.565V14.903V13.8817H33.9094H31.2879L23.6276 21.542Z" fill="black"/>
    <path d="M15.3547 16.1627C15.2525 16.333 15.2185 16.8096 15.2525 17.2862C15.2866 18.0693 15.4227 18.1374 17.3293 18.2395C19.0656 18.3417 19.5423 18.5119 20.4615 19.3971C21.551 20.4525 21.585 20.4525 22.2659 19.8397C23.2192 18.9885 23.1511 18.614 21.6531 17.1841C20.4275 15.9585 20.2913 15.9244 17.9421 15.9244C16.5803 15.9244 15.4227 16.0265 15.3547 16.1627Z" fill="black"/>
    <path d="M13.0396 20.827C11.133 21.5079 9.43072 22.9719 8.61363 24.6401C8.03485 25.8998 7.93272 26.6148 8.03485 28.6915C8.13699 30.8364 8.30722 31.4152 9.1924 32.6749C11.133 35.4666 14.9461 36.6923 18.0783 35.5007C19.3721 35.024 20.9382 33.6963 25.5003 29.2022C28.7006 26.07 31.6285 23.3123 32.037 23.1081C33.3308 22.4612 35.9863 22.6655 37.246 23.4826C39.1866 24.8103 39.7995 25.9338 39.7995 28.1809C39.7995 29.6789 39.6292 30.4279 39.0845 31.1428C37.8589 32.777 36.2928 33.6282 34.4543 33.6282C32.4115 33.6282 31.7306 33.3217 29.6538 31.3131L28.0537 29.747L27.3047 30.496L26.5557 31.245L28.3942 33.1175C31.9349 36.7263 36.497 36.9646 39.7654 33.7303C43.9871 29.5767 41.9103 22.0526 36.1906 20.6908C32.5137 19.8056 30.8795 20.6908 24.8194 26.819C18.555 33.1515 17.9421 33.6282 15.4909 33.6282C13.2098 33.6282 11.9501 32.9132 10.7926 31.0066C8.74981 27.6361 10.8947 23.1761 14.7418 22.8016C15.6611 22.7335 16.9208 22.8357 17.5336 23.04C18.5209 23.3804 18.7592 23.3464 19.3721 22.7335C20.053 22.0186 20.053 22.0186 19.3721 21.5079C17.84 20.3844 15.1163 20.078 13.0396 20.827Z" fill="black"/>
</svg>

