<svg width="32" height="32" viewBox="0 0 32 32" fill="none" xmlns="http://www.w3.org/2000/svg">
<path d="M5.33594 10.666H26.6693M5.33594 10.666V22.3996C5.33594 23.8931 5.33594 24.6394 5.62659 25.2099C5.88225 25.7116 6.2899 26.12 6.79167 26.3757C7.36154 26.666 8.10793 26.666 9.59848 26.666H22.4067C23.8973 26.666 24.6426 26.666 25.2125 26.3757C25.7142 26.12 26.1232 25.7116 26.3789 25.2099C26.6693 24.64 26.6693 23.8947 26.6693 22.4041V10.666M5.33594 10.666V9.59961C5.33594 8.10614 5.33594 7.35884 5.62659 6.78841C5.88225 6.28665 6.2899 5.87899 6.79167 5.62333C7.3621 5.33268 8.10939 5.33268 9.60286 5.33268H10.6693M26.6693 10.666V9.59523C26.6693 8.10467 26.6693 7.35829 26.3789 6.78841C26.1232 6.28665 25.7142 5.87899 25.2125 5.62333C24.642 5.33268 23.8963 5.33268 22.4029 5.33268H21.3359M21.3359 2.66602V5.33268M21.3359 5.33268H10.6693M10.6693 2.66602V5.33268" stroke="#2677DB" stroke-width="2" stroke-linecap="round" stroke-linejoin="round"/>
<path d="M11.3436 15.11C11.1536 15.3635 11.0625 15.702 11.0704 16.1257H9.49038C9.50622 15.6981 9.57947 15.2922 9.71015 14.9081C9.84875 14.5715 10.0665 14.2606 10.3635 13.9755C10.5853 13.7735 10.8486 13.6191 11.1536 13.5122C11.4585 13.4053 11.8327 13.3518 12.2762 13.3518C13.0999 13.3518 13.7632 13.5656 14.2661 13.9933C14.7729 14.417 15.0264 14.9873 15.0264 15.704C15.0264 16.2109 14.8759 16.6386 14.5749 16.987C14.3849 17.2048 14.1869 17.3533 13.981 17.4325C14.1354 17.4325 14.3572 17.5652 14.6462 17.8305C15.0779 18.2305 15.2937 18.7769 15.2937 19.4699C15.2937 20.1986 15.0402 20.8401 14.5334 21.3945C14.0305 21.9449 13.284 22.2201 12.294 22.2201C11.0744 22.2201 10.2269 21.8221 9.75173 21.0262C9.50226 20.6025 9.36366 20.0481 9.33594 19.363H10.9991C10.9991 19.7075 11.0546 19.9926 11.1654 20.2184C11.3714 20.6341 11.7456 20.842 12.2881 20.842C12.6207 20.842 12.9098 20.7292 13.1553 20.5035C13.4048 20.2738 13.5295 19.9451 13.5295 19.5174C13.5295 18.9512 13.2998 18.573 12.8405 18.3829C12.5791 18.276 12.1673 18.2225 11.605 18.2225V17.0108C12.1554 17.0029 12.5395 16.9494 12.7573 16.8504C13.1335 16.6841 13.3216 16.3475 13.3216 15.8406C13.3216 15.512 13.2246 15.2447 13.0306 15.0387C12.8405 14.8328 12.5712 14.7299 12.2227 14.7299C11.8228 14.7299 11.5297 14.8566 11.3436 15.11Z" fill="#2677DB"/>
<path d="M19.1368 22.2201C18.0399 22.2201 17.2697 21.836 16.8262 21.0678C16.3866 20.2995 16.1668 19.2046 16.1668 17.783C16.1668 16.3614 16.3866 15.2645 16.8262 14.4923C17.2697 13.7201 18.0399 13.334 19.1368 13.334C20.2337 13.334 21.0039 13.7201 21.4474 14.4923C21.887 15.2645 22.1068 16.3614 22.1068 17.783C22.1068 19.2046 21.885 20.2995 21.4415 21.0678C21.0019 21.836 20.2337 22.2201 19.1368 22.2201ZM20.1288 20.052C20.2832 19.5293 20.3604 18.773 20.3604 17.783C20.3604 16.7455 20.2812 15.9773 20.1228 15.4783C19.9684 14.9793 19.6397 14.7299 19.1368 14.7299C18.6339 14.7299 18.3013 14.9793 18.1389 15.4783C17.9765 15.9773 17.8954 16.7455 17.8954 17.783C17.8954 18.773 17.9765 19.5313 18.1389 20.058C18.3013 20.5807 18.6339 20.842 19.1368 20.842C19.6397 20.842 19.9704 20.5787 20.1288 20.052Z" fill="#2677DB"/>
</svg>
