<svg width="24" height="24" viewBox="0 0 24 24" fill="none" xmlns="http://www.w3.org/2000/svg">
<path d="M12.031 5.60006L12.0283 6.35006L12.031 5.60006ZM18.3984 8.66265L17.8398 9.16312V9.16312L18.3984 8.66265ZM18.9801 9.36347L19.5744 8.906V8.906L18.9801 9.36347ZM18.9801 14.6365L19.5744 15.094L18.9801 14.6365ZM5.01991 14.6365L4.42559 15.094H4.42559L5.01991 14.6365ZM5.01991 9.36347L4.42559 8.906H4.42559L5.01991 9.36347ZM9.6 5.9677L9.37266 5.25299V5.25299L9.6 5.9677ZM6.4 7.8571L6.9043 8.41225V8.41224L6.4 7.8571ZM14.1727 6.68239C14.5674 6.80795 14.9892 6.58974 15.1147 6.19501C15.2403 5.80029 15.0221 5.37852 14.6273 5.25296L14.1727 6.68239ZM12 6.35001C12.0094 6.35001 12.0189 6.35002 12.0283 6.35006L12.0338 4.85007C12.0226 4.85003 12.0113 4.85001 12 4.85001V6.35001ZM12.0283 6.35006C14.6335 6.3597 16.5373 7.7093 17.8398 9.16312L18.957 8.16218C17.4868 6.5212 15.2103 4.86183 12.0338 4.85007L12.0283 6.35006ZM17.8398 9.16312C18.0363 9.38247 18.2182 9.60329 18.3858 9.82094L19.5744 8.906C19.386 8.66118 19.1803 8.41144 18.957 8.16218L17.8398 9.16312ZM18.3858 14.1791C17.0958 15.855 15.0133 17.65 12 17.65V19.15C15.6778 19.15 18.1491 16.9457 19.5744 15.094L18.3858 14.1791ZM12 17.65C8.98674 17.65 6.90424 15.855 5.61424 14.1791L4.42559 15.094C5.8509 16.9457 8.32225 19.15 12 19.15V17.65ZM18.3858 9.82094C18.7394 10.2803 18.9325 10.538 19.059 10.8243C19.1744 11.0855 19.25 11.4129 19.25 12H20.75C20.75 11.2756 20.6556 10.7264 20.4311 10.2181C20.2176 9.73485 19.9008 9.32999 19.5744 8.906L18.3858 9.82094ZM19.5744 15.094C19.9008 14.67 20.2176 14.2652 20.4311 13.7819C20.6556 13.2736 20.75 12.7244 20.75 12H19.25C19.25 12.5871 19.1744 12.9145 19.059 13.1758C18.9325 13.462 18.7394 13.7197 18.3858 14.1791L19.5744 15.094ZM4.42559 8.906C4.09924 9.32999 3.78244 9.73485 3.56894 10.2181C3.3444 10.7264 3.25 11.2756 3.25 12H4.75C4.75 11.4129 4.82559 11.0855 4.94102 10.8243C5.06749 10.538 5.26065 10.2803 5.61424 9.82094L4.42559 8.906ZM5.61424 14.1791C5.26065 13.7197 5.06749 13.462 4.94101 13.1758C4.82559 12.9145 4.75 12.5871 4.75 12H3.25C3.25 12.7244 3.3444 13.2736 3.56894 13.7819C3.78243 14.2652 4.09924 14.67 4.42559 15.094L5.61424 14.1791ZM9.82734 6.68242C10.4851 6.4732 11.2076 6.35001 12 6.35001V4.85001C11.0491 4.85001 10.1733 4.9983 9.37266 5.25299L9.82734 6.68242ZM5.61424 9.82094C5.97695 9.34972 6.40627 8.86467 6.9043 8.41225L5.8957 7.30196C5.32131 7.82375 4.83284 8.37692 4.42559 8.906L5.61424 9.82094ZM9.37266 5.25299C7.97246 5.69837 6.81896 6.46326 5.8957 7.30196L6.9043 8.41224C7.70523 7.68467 8.67563 7.04875 9.82734 6.68242L9.37266 5.25299ZM14.6273 5.25296C13.8362 5.00131 12.9717 4.85354 12.0338 4.85007L12.0283 6.35006C12.8096 6.35295 13.5227 6.47566 14.1727 6.68239L14.6273 5.25296ZM18.957 8.16219C18.6973 7.87233 18.4133 7.58267 18.1043 7.30194L17.0957 8.41222C17.3633 8.6553 17.6112 8.90798 17.8398 9.16311L18.957 8.16219ZM13.65 12C13.65 12.9113 12.9113 13.65 12 13.65V15.15C13.7397 15.15 15.15 13.7397 15.15 12H13.65ZM12 13.65C11.0887 13.65 10.35 12.9113 10.35 12H8.85C8.85 13.7397 10.2603 15.15 12 15.15V13.65ZM10.35 12C10.35 11.0887 11.0887 10.35 12 10.35V8.85001C10.2603 8.85001 8.85 10.2603 8.85 12H10.35ZM12 10.35C12.9113 10.35 13.65 11.0887 13.65 12H15.15C15.15 10.2603 13.7397 8.85001 12 8.85001V10.35Z" fill="#8D8F8C"/>
</svg>
