<svg width="24" height="24" viewBox="0 0 24 24" fill="none" xmlns="http://www.w3.org/2000/svg">
<path d="M4.68936 7.70456C4.52619 7.32384 4.08528 7.14747 3.70456 7.31064C3.32384 7.47381 3.14747 7.91472 3.31064 8.29544L4.68936 7.70456ZM14.8698 13.063L14.5951 12.3651L14.8698 13.063ZM9.75889 13.472C9.98479 13.1248 9.88648 12.6602 9.53929 12.4343C9.1921 12.2084 8.72752 12.3067 8.50161 12.6539L9.75889 13.472ZM7.37136 14.391C7.14546 14.7381 7.24377 15.2027 7.59096 15.4286C7.93815 15.6545 8.40273 15.5562 8.62864 15.209L7.37136 14.391ZM20.6894 8.29544C20.8525 7.91472 20.6762 7.47381 20.2954 7.31064C19.9147 7.14747 19.4738 7.32384 19.3106 7.70456L20.6894 8.29544ZM17.6 11.3031L17.0867 10.7562L17.0867 10.7562L17.6 11.3031ZM18.2697 13.0334C18.5626 13.3263 19.0374 13.3263 19.3303 13.0334C19.6232 12.7405 19.6232 12.2656 19.3303 11.9727L18.2697 13.0334ZM11.25 15.6C11.25 16.0142 11.5858 16.35 12 16.35C12.4142 16.35 12.75 16.0142 12.75 15.6H11.25ZM15.3714 15.209C15.5973 15.5562 16.0619 15.6545 16.409 15.4286C16.7562 15.2027 16.8545 14.7381 16.6286 14.391L15.3714 15.209ZM6.93033 11.8334C7.22322 11.5405 7.22322 11.0656 6.93033 10.7727C6.63744 10.4798 6.16256 10.4798 5.86967 10.7727L6.93033 11.8334ZM4.66967 11.9727C4.37678 12.2656 4.37678 12.7405 4.66967 13.0334C4.96256 13.3263 5.43744 13.3263 5.73033 13.0334L4.66967 11.9727ZM12 12.85C9.47611 12.85 7.66133 11.5946 6.4496 10.2897C5.84395 9.63743 5.3995 8.98284 5.10697 8.49139C4.96113 8.24637 4.85421 8.04388 4.78488 7.90521C4.75025 7.83594 4.72507 7.78277 4.70919 7.74839C4.70126 7.73121 4.69565 7.71874 4.69235 7.71131C4.6907 7.7076 4.68963 7.70516 4.68913 7.70402C4.68888 7.70345 4.68878 7.7032 4.68881 7.70329C4.68883 7.70334 4.68889 7.70346 4.68898 7.70368C4.68902 7.70378 4.68912 7.704 4.68914 7.70405C4.68925 7.7043 4.68936 7.70456 4 8C3.31064 8.29544 3.31077 8.29575 3.31091 8.29607C3.31097 8.29621 3.31112 8.29656 3.31124 8.29684C3.31148 8.29739 3.31175 8.29802 3.31207 8.29875C3.31269 8.30019 3.31347 8.30198 3.31439 8.3041C3.31624 8.30834 3.3187 8.31393 3.32176 8.32081C3.32789 8.33458 3.33644 8.35356 3.34745 8.37739C3.36946 8.42504 3.40132 8.49219 3.44324 8.57604C3.52704 8.74362 3.65137 8.97863 3.81803 9.25861C4.1505 9.81716 4.65605 10.5626 5.3504 11.3103C6.73867 12.8054 8.92389 14.35 12 14.35V12.85ZM14.5951 12.3651C13.8355 12.6641 12.9737 12.85 12 12.85V14.35C13.1702 14.35 14.2179 14.1255 15.1444 13.7608L14.5951 12.3651ZM8.50161 12.6539L7.37136 14.391L8.62864 15.209L9.75889 13.472L8.50161 12.6539ZM20 8C19.3106 7.70456 19.3107 7.70441 19.3108 7.70426C19.3108 7.70422 19.3108 7.70408 19.3109 7.704C19.3109 7.70384 19.311 7.70371 19.3111 7.7036C19.3111 7.70339 19.3112 7.70328 19.3112 7.70328C19.3112 7.70327 19.311 7.70367 19.3107 7.70449C19.31 7.70611 19.3085 7.70938 19.3064 7.71421C19.302 7.72389 19.2948 7.73984 19.2847 7.76161C19.2644 7.80517 19.2324 7.87188 19.1885 7.95799C19.1006 8.13036 18.9654 8.37941 18.781 8.67524C18.411 9.26905 17.8504 10.0394 17.0867 10.7562L18.1133 11.8499C18.9965 11.0209 19.6358 10.1398 20.0541 9.4685C20.2639 9.13178 20.42 8.8449 20.5247 8.63947C20.5771 8.53668 20.6169 8.45403 20.6442 8.39544C20.6578 8.36614 20.6684 8.34284 20.6759 8.32601C20.6797 8.3176 20.6827 8.31081 20.6849 8.30569C20.686 8.30313 20.687 8.301 20.6877 8.29928C20.6881 8.29843 20.6884 8.29768 20.6887 8.29704C20.6888 8.29672 20.6889 8.29642 20.6891 8.29616C20.6891 8.29602 20.6892 8.29584 20.6892 8.29578C20.6893 8.29561 20.6894 8.29544 20 8ZM17.0867 10.7562C16.4103 11.3911 15.5829 11.9762 14.5951 12.3651L15.1444 13.7608C16.3445 13.2885 17.3292 12.5859 18.1133 11.8499L17.0867 10.7562ZM17.0697 11.8334L18.2697 13.0334L19.3303 11.9727L18.1303 10.7727L17.0697 11.8334ZM11.25 13.6V15.6H12.75V13.6H11.25ZM14.2411 13.472L15.3714 15.209L16.6286 14.391L15.4984 12.6539L14.2411 13.472ZM5.86967 10.7727L4.66967 11.9727L5.73033 13.0334L6.93033 11.8334L5.86967 10.7727Z" fill="#8D8F8C"/>
</svg>
