<svg width="32" height="32" viewBox="0 0 32 32" fill="none" xmlns="http://www.w3.org/2000/svg">
<path d="M8.80469 12.4004H13.6047" stroke="#2677DB" stroke-width="2" stroke-linecap="round" stroke-linejoin="round"/>
<path d="M26.6012 13.5996H23.4788C21.3368 13.5996 19.6016 15.2112 19.6016 17.1996C19.6016 19.188 21.338 20.7996 23.4776 20.7996H26.6012C26.702 20.7996 26.7512 20.7996 26.7932 20.7972C27.4412 20.7576 27.9572 20.2788 27.9992 19.6776C28.0016 19.6392 28.0016 19.5924 28.0016 19.5V14.8992C28.0016 14.8068 28.0016 14.76 27.9992 14.7216C27.956 14.1204 27.4412 13.6416 26.7932 13.602C26.7512 13.5996 26.702 13.5996 26.6012 13.5996Z" stroke="#2677DB" stroke-width="2"/>
<path d="M8.26693 8H9.33333H21.3333H22.4003C23.8937 8 24.6394 8 25.2099 8.29065C25.7116 8.54631 26.1206 8.95396 26.3763 9.45573C26.6667 10.0256 26.6667 10.772 26.6667 12.2625V13.3333V22.4048C26.6667 23.8953 26.6667 24.6406 26.3763 25.2105C26.1206 25.7123 25.7116 26.1206 25.2099 26.3763C24.64 26.6667 23.8947 26.6667 22.4041 26.6667H8.26255C6.77199 26.6667 6.0256 26.6667 5.45573 26.3763C4.95396 26.1206 4.54631 25.7123 4.29065 25.2105C4 24.6401 4 23.8937 4 22.4003V13.3333V12.2669C4 10.7735 4 10.0262 4.29065 9.45573C4.54631 8.95396 4.95396 8.54631 5.45573 8.29065C6.02616 8 6.77345 8 8.26693 8Z" stroke="#2677DB" stroke-width="2" stroke-linecap="round" stroke-linejoin="round"/>
<path d="M8.80469 7.59994L13.2867 4.62754C13.9172 4.21798 14.6529 4 15.4047 4C16.1565 4 16.8922 4.21798 17.5227 4.62754L22.0047 7.59994" stroke="#2677DB" stroke-width="2" stroke-linecap="round"/>
<path d="M23.1875 17.2012H23.1995" stroke="#2677DB" stroke-width="2" stroke-linecap="round" stroke-linejoin="round"/>
</svg>
