<svg width="300" height="38" viewBox="0 0 300 38" fill="none" xmlns="http://www.w3.org/2000/svg">
<g clip-path="url(#clip0_41_409)">
<path d="M23.4237 13.7126C17.2443 19.892 11.9121 24.8754 11.5134 24.8256C11.1147 24.7259 10.5666 24.2774 10.2676 23.8289C9.81905 23.1312 10.0682 22.6329 11.6131 21.0382C13.6563 18.995 13.5566 18.4469 11.3639 18.4469C9.12137 18.4469 6.97852 20.8389 6.97852 23.2807C6.97852 25.7226 8.02503 27.1678 10.2177 27.9153C11.6131 28.3638 12.2111 28.314 13.5566 27.716C14.4536 27.2675 19.8855 22.0847 25.6164 16.2043L36.0317 5.49004H39.1712H42.3606V3.99503V2.50001H38.4735H34.6363L23.4237 13.7126Z" fill="black"/>
<path d="M11.3142 5.83888C11.1647 6.08805 11.1148 6.78572 11.1647 7.4834C11.2145 8.62958 11.4139 8.72925 14.2046 8.87875C16.7461 9.02825 17.4438 9.27742 18.7893 10.5731C20.384 12.118 20.4338 12.118 21.4305 11.2209C22.8258 9.97509 22.7261 9.42692 20.5335 7.3339C18.7394 5.53988 18.5401 5.49004 15.1016 5.49004C13.1082 5.49004 11.4139 5.63954 11.3142 5.83888Z" fill="black"/>
<path d="M7.92542 12.6661C5.13473 13.6628 2.64303 15.8057 1.44702 18.2475C0.599842 20.0914 0.450341 21.1379 0.599842 24.1777C0.749344 27.3173 0.998514 28.1645 2.29419 30.0083C5.13473 34.0947 10.7161 35.8887 15.3008 34.1445C17.1945 33.4469 19.4869 31.5033 26.1646 24.9253C30.849 20.3405 35.1347 16.304 35.7327 16.005C37.6264 15.0581 41.5135 15.3572 43.3573 16.5532C46.1979 18.4967 47.0949 20.1412 47.0949 23.4302C47.0949 25.6229 46.8457 26.7193 46.0484 27.7658C44.2543 30.1578 41.962 31.4037 39.2709 31.4037C36.2809 31.4037 35.2842 30.9552 32.2444 28.015L29.9022 25.7226L28.8058 26.8189L27.7095 27.9153L30.4005 30.6562C35.5832 35.9385 42.261 36.2874 47.045 31.5532C53.2244 25.4734 50.1846 14.4601 41.8125 12.4668C36.4304 11.1711 34.0384 12.4668 25.1679 21.4369C15.9985 30.706 15.1015 31.4037 11.5135 31.4037C8.17459 31.4037 6.33074 30.3572 4.63639 27.5665C1.64635 22.6329 4.78589 16.1047 10.4171 15.5565C11.7626 15.4568 13.6065 15.6063 14.5035 15.9053C15.9487 16.4037 16.2975 16.3538 17.1945 15.4568C18.1912 14.4103 18.1912 14.4103 17.1945 13.6628C14.952 12.0183 10.9653 11.5698 7.92542 12.6661Z" fill="black"/>
<path d="M133.158 12.8655C132.66 13.3638 131.264 16.603 130.068 20.0914C128.872 23.5798 127.726 26.4203 127.576 26.4203C127.427 26.4203 126.929 25.3738 126.48 24.0283C126.032 22.7326 124.935 19.593 124.088 17.0515C122.543 12.716 122.394 12.4668 121.048 12.4668C120.251 12.4668 119.603 12.6163 119.603 12.8156C119.603 13.0648 120.799 16.5532 122.244 20.6894C124.437 26.9186 125.085 28.2641 126.231 28.912C127.427 29.5598 127.726 29.5598 128.972 28.912C130.068 28.2641 130.666 27.0681 132.56 21.5864C133.806 17.9984 134.902 14.9087 135.052 14.7592C135.201 14.6097 136.347 17.4502 137.593 21.0881C140.035 28.1146 141.331 29.8588 143.473 29.1611C145.068 28.6628 145.716 27.417 148.457 19.5432L150.998 12.417L149.354 12.5665C147.759 12.716 147.759 12.7658 145.417 19.4435C144.171 23.1312 143.025 26.3704 142.925 26.6695C142.776 26.9186 141.63 24.0283 140.284 20.2907C137.892 13.4635 136.945 11.9685 134.952 11.9685C134.454 11.9685 133.656 12.3671 133.158 12.8655Z" fill="black"/>
<path d="M254.902 13.2143C253.706 14.3605 253.656 14.6096 253.656 21.6861V28.912H255.151H256.646V21.9352C256.646 18.098 256.696 14.9585 256.796 14.9585C256.846 14.9585 260.184 18.1977 264.171 22.1844C271.646 29.6595 272.543 30.2076 274.537 28.5133C275.483 27.716 275.583 27.1179 275.633 20.191L275.683 12.716L274.387 12.5665L273.091 12.4169V19.3937C273.091 23.2807 272.942 26.4203 272.743 26.4203C272.493 26.4203 269.204 23.1811 265.367 19.1944C257.842 11.4203 257.095 10.9718 254.902 13.2143Z" fill="black"/>
<path d="M70.2676 20.6894V28.912H71.7626C73.2078 28.912 73.2576 28.8621 73.2576 26.4203V23.9286H81.4802H89.7028V26.4203C89.7028 28.7625 89.8025 28.912 90.9486 28.912C92.0948 28.912 92.1945 28.7625 92.1945 26.4701C92.1945 24.9751 91.8955 23.7292 91.447 23.2807C90.7991 22.6329 90.7991 22.4834 91.447 21.9352C91.9453 21.4867 92.1945 20.3405 92.1945 18.098C92.1945 15.3572 91.9952 14.7591 90.9486 13.7126C89.7526 12.4668 89.7028 12.4668 79.9852 12.4668H70.2676V20.6894ZM89.7028 18.1977V20.9385H81.4802H73.2576V18.1977V15.4568H81.4802H89.7028V18.1977Z" fill="black"/>
<path d="M97.3272 13.6628C95.9319 14.8588 95.9319 14.9087 95.9319 20.6894C95.9319 26.4701 95.9319 26.5199 97.3272 27.716C98.6727 28.8621 98.9718 28.912 106.696 28.912H114.719L116.164 27.4668C117.61 26.0216 117.61 25.9219 117.61 20.5399C117.61 15.3073 117.56 15.0582 116.314 13.7625C114.968 12.4668 114.968 12.4668 106.846 12.4668C98.9718 12.4668 98.6727 12.5166 97.3272 13.6628ZM114.62 20.6894V25.9219H106.646H98.6727V20.6894V15.4568H106.646H114.62V20.6894Z" fill="black"/>
<path d="M154.138 13.6628C152.742 14.8588 152.742 14.9087 152.742 20.6894C152.742 26.4701 152.742 26.5199 154.138 27.716C155.533 28.912 155.732 28.912 165.002 28.912H174.42V27.417V25.9219H164.952H155.483V23.9286V21.9352H164.952H174.42V20.6894V19.4435H164.952H155.483V17.4502V15.4568H164.952H174.42V13.9618V12.4668H165.002C155.732 12.4668 155.533 12.4668 154.138 13.6628Z" fill="black"/>
<path d="M177.909 20.6894V28.912H179.404C180.849 28.912 180.899 28.8621 180.899 26.4203V23.9286H188.872H196.846V26.4203C196.846 28.8621 196.895 28.912 198.341 28.912C199.786 28.912 199.836 28.8123 199.836 26.7691C199.836 25.6229 199.487 24.1279 199.038 23.5299C198.341 22.5332 198.341 22.3339 199.038 21.3372C199.487 20.6894 199.836 19.1944 199.836 17.799C199.836 15.8057 199.586 15.1578 198.39 13.912L196.945 12.4668H187.427H177.909V20.6894ZM196.846 18.1977V20.9385H188.872H180.899V18.1977V15.4568H188.872H196.846V18.1977Z" fill="black"/>
<path d="M203.324 20.7392V28.9618L204.719 28.8123C205.965 28.6628 206.065 28.5133 206.065 26.4203V24.1777L214.188 24.0282L222.261 23.9286V26.4203C222.261 28.8621 222.311 28.912 223.756 28.912C225.151 28.912 225.251 28.8123 225.251 27.0183C225.251 26.0216 224.902 24.5266 224.503 23.7791C223.856 22.5332 223.856 22.2342 224.553 21.1379C225.849 19.2442 225.251 15.108 223.557 13.613C222.261 12.5166 221.912 12.4668 212.743 12.4668H203.324V20.7392ZM222.261 18.1977V20.9385L214.188 20.8389L206.065 20.6894L205.915 18.0482L205.766 15.4568H213.988H222.261V18.1977Z" fill="black"/>
<path d="M230.583 13.015C229.038 13.912 228.241 16.6528 228.241 20.9385C228.241 25.2243 228.988 27.4668 230.683 28.4136C231.281 28.7126 235.517 28.912 240.899 28.912H250.168V27.417V25.9219H240.65H231.181L231.331 24.0283L231.48 22.1844L240.749 22.0349L250.068 21.9352L250.268 20.6894L250.517 19.4435L240.998 19.3439L231.48 19.1944L231.331 17.3007L231.181 15.4568H240.6C245.782 15.4568 250.118 15.3572 250.268 15.2077C250.417 15.0582 250.417 14.3605 250.268 13.7126L250.068 12.4668H240.749C235.118 12.4668 231.131 12.716 230.583 13.015Z" fill="black"/>
<path d="M278.573 13.9618V15.4568H283.058H287.543V22.1844V28.912H289.038H290.533V22.1844V15.5067L295.168 15.3572L299.753 15.2077L299.902 13.8123L300.052 12.4668H289.337H278.573V13.9618Z" fill="black"/>
</g>
<defs>
<clipPath id="clip0_41_409">
<rect width="300" height="38" fill="white"/>
</clipPath>
</defs>
</svg>
