<svg width="50" height="32" viewBox="0 0 50 32" fill="none" xmlns="http://www.w3.org/2000/svg">
<rect width="49" height="32" fill="white"/>
<path d="M22.6096 11.0825C16.5019 17.1903 11.2315 22.1159 10.8374 22.0666C10.4434 21.9681 9.90158 21.5248 9.60604 21.0815C9.16274 20.3919 9.40902 19.8994 10.936 18.3232C12.9555 16.3037 12.8569 15.7619 10.6897 15.7619C8.47315 15.7619 6.35514 18.1262 6.35514 20.5397C6.35514 22.9533 7.38952 24.3817 9.55678 25.1205C10.936 25.5638 11.527 25.5146 12.8569 24.9235C13.7435 24.4802 19.1125 19.3576 24.7769 13.5453L35.0714 2.9553H41.3269V-6.10352e-05H33.6922L22.6096 11.0825Z" fill="black"/>
<path d="M10.6405 3.30014C10.4928 3.54642 10.4435 4.236 10.4928 4.92559C10.542 6.05848 10.739 6.15699 13.4974 6.30476C16.0094 6.45253 16.699 6.69881 18.0289 7.97946C19.6051 9.5064 19.6544 9.5064 20.6395 8.61979C22.0187 7.38839 21.9202 6.84657 19.7529 4.77782C17.9797 3.0046 17.7826 2.95535 14.384 2.95535C12.4137 2.95535 10.739 3.10311 10.6405 3.30014Z" fill="black"/>
<path d="M7.29106 10.0482C4.53272 11.0334 2.06992 13.1514 0.887775 15.5649C0.0504228 17.3874 -0.0973453 18.4218 0.0504228 21.4264C0.198191 24.5295 0.444471 25.3669 1.72513 27.1893C4.53272 31.2283 10.0494 33.0015 14.581 31.2776C16.4527 30.588 18.7185 28.667 25.3188 22.1652C29.9488 17.6337 34.1849 13.6439 34.7759 13.3484C36.6477 12.4125 40.4896 12.7081 42.3121 13.8902C45.1197 15.8112 46.0063 17.4366 46.0063 20.6875C46.0063 22.8548 45.76 23.9384 44.9719 24.9728C43.1987 27.3371 40.9329 28.5685 38.2731 28.5685C35.3177 28.5685 34.3326 28.1252 31.328 25.2191L29.013 22.9533L26.8457 25.1206L29.5055 27.8297C34.6282 33.0508 41.2285 33.3956 45.957 28.7163C52.0648 22.707 49.0602 11.8215 40.7852 9.85122C35.4655 8.57056 33.1012 9.85122 24.3336 18.7173C15.2705 27.8789 14.3839 28.5685 10.8375 28.5685C7.53734 28.5685 5.71487 27.5341 4.04016 24.7758C1.0848 19.8994 4.18793 13.4469 9.75386 12.9051C11.0838 12.8066 12.9062 12.9544 13.7929 13.2499C15.2213 13.7424 15.5661 13.6932 16.4527 12.8066C17.4378 11.7722 17.4378 11.7722 16.4527 11.0334C14.2362 9.40792 10.2957 8.96461 7.29106 10.0482Z" fill="black"/>
</svg>
